<svg width="90" height="48" viewBox="0 0 90 48" fill="none" xmlns="http://www.w3.org/2000/svg">
<path d="M2 41V7C2 4.23858 4.23858 2 7 2H69.4902C71.0695 2 72.556 2.74613 73.4996 4.01251L86.6895 21.714C88.0501 23.54 88.005 26.0547 86.5798 27.8308L73.5011 44.1293C72.5522 45.3119 71.1178 46 69.6015 46H7C4.23858 46 2 43.7614 2 41Z" stroke="#4B4B4B" stroke-width="3"/>
<path d="M24.5629 23.2379C24.2509 25.8639 23.7309 28.1259 23.0809 30.3359C22.8469 31.1419 22.6129 32.0519 21.7549 32.0519C20.8709 32.0519 20.3769 31.2199 20.1689 30.3099C19.7789 28.6459 19.7009 26.9299 19.7529 25.1879C19.8309 22.5619 19.7789 19.9619 18.7129 17.5439C18.0629 16.0879 17.7769 14.6319 19.2849 13.8519C20.8449 13.0459 21.5729 14.4759 22.0929 15.8799C22.1969 16.1919 22.2749 16.5039 22.3789 16.8419C24.4849 15.1259 25.4209 15.4119 26.4349 18.1159C26.9289 19.4419 27.3709 20.7939 27.8909 22.0939C28.3329 23.2119 28.8529 23.3419 29.5029 22.2239C30.5429 20.4039 31.1409 18.4019 31.9209 16.4779C32.3369 15.4379 32.6489 14.1639 34.0009 14.2419C35.4309 14.3199 35.5869 15.5939 35.8729 16.8419C37.0689 21.8079 36.2109 26.7999 36.1589 31.7919C36.1589 32.4679 35.8989 33.1439 35.1449 33.2739C34.2869 33.4559 34.1829 32.5979 33.9749 32.0259C33.1429 29.7639 33.2989 27.3199 33.0129 24.9279C32.9609 24.4339 33.1169 23.8619 32.7269 23.4199C29.3209 28.7499 28.2029 29.1919 24.5629 23.2379Z" fill="#4B4B4B"/>
<path d="M46.3109 22.0159C43.8149 22.4319 42.7749 24.5899 41.6829 26.7219C41.5269 27.0599 41.1369 27.3719 41.4749 27.8139C41.7609 28.2039 42.1769 28.2559 42.6189 28.0479C45.1929 26.9559 46.8569 25.8899 46.3109 22.0159ZM48.4429 20.5859C48.8069 21.8859 50.2369 22.7439 49.6909 23.9919C49.3529 26.5659 50.0029 28.0479 51.6149 29.0359C52.2129 29.3999 53.1489 29.9199 52.7849 30.8559C52.4209 31.8439 51.5629 32.2079 50.4969 31.8959C49.5349 31.6099 48.5989 31.2979 48.0009 30.3619C47.3249 29.2959 46.6489 29.4779 45.8429 30.0759C44.4909 31.0899 43.0869 31.8699 41.4489 31.8179C39.4469 31.7659 38.2249 30.2059 38.3289 27.8399C38.5369 24.0179 41.7869 19.5199 44.9849 18.7139C46.4929 18.3239 47.7669 18.2979 48.4429 20.5859Z" fill="#4B4B4B"/>
<path d="M58.2203 13.4619C58.2203 14.4759 56.6343 16.5819 55.7243 16.7119C54.9963 16.8159 54.4243 16.4519 54.0603 15.8539C53.6183 15.1519 53.4363 14.2939 53.9563 13.6439C54.5283 12.9159 55.2823 12.2659 56.1143 11.8239C57.3363 11.1739 58.2203 11.9279 58.2203 13.4619ZM54.7363 33.0659C54.4503 31.4799 54.6843 29.9199 54.7363 28.6459C54.4763 26.0719 54.5543 23.7579 53.7743 21.5479C53.4883 20.6639 53.3583 19.5979 54.3203 18.8959C55.4643 18.0899 56.5563 18.4019 57.0243 19.7799C58.0123 22.5879 57.8563 25.4999 57.8823 28.4119C57.8823 30.0499 57.6743 31.6619 57.0763 33.2219C56.8683 33.7679 56.8423 34.5479 56.0103 34.3919C55.3603 34.2879 54.8663 33.8459 54.7363 33.0659Z" fill="#4B4B4B"/>
<path d="M63.2456 19.5199C63.5576 22.9259 63.3236 26.0719 63.9736 29.1399C64.0256 29.3999 63.9736 29.6599 63.9996 29.9199C64.0776 30.8039 63.9996 31.7139 63.0636 31.9479C62.0756 32.2079 61.7896 31.2979 61.4776 30.5179C60.7496 28.8019 60.6456 26.9299 60.4116 25.1099C60.0996 22.3279 59.9176 19.5199 59.6836 16.7119C59.6316 16.3219 59.6056 15.9319 59.6576 15.5679C59.7616 14.4499 60.1256 13.5399 61.3736 13.5139C62.5956 13.4619 63.1416 14.3199 63.2196 15.4119C63.3236 16.8679 63.2456 18.3499 63.2456 19.5199Z" fill="#4B4B4B"/>
</svg>
